<svg width="46" height="30" viewBox="0 0 46 30" fill="none" xmlns="http://www.w3.org/2000/svg">
<path d="M29.0689 5.22632H16.9343V24.7695H29.0689V5.22632Z" fill="#FF5F00"/>
<path d="M18.1843 15.0011C18.1828 13.1192 18.6154 11.2617 19.4494 9.5691C20.2834 7.87647 21.497 6.39309 22.9982 5.23122C21.1388 3.79032 18.9059 2.89432 16.5545 2.64561C14.2032 2.39689 11.8283 2.80551 9.70134 3.82474C7.57436 4.84398 5.7811 6.43273 4.52649 8.40939C3.27189 10.3861 2.60657 12.6709 2.60657 15.0028C2.60657 17.3347 3.27189 19.6195 4.52649 21.5962C5.7811 23.5729 7.57436 25.1616 9.70134 26.1808C11.8283 27.2001 14.2032 27.6087 16.5545 27.36C18.9059 27.1113 21.1388 26.2153 22.9982 24.7744C21.4965 23.6121 20.2827 22.1282 19.4486 20.4349C18.6146 18.7417 18.1822 16.8835 18.1843 15.0011Z" fill="#EB001B"/>
<path d="M42.1876 22.7023V22.3018H42.3627V22.219H41.946V22.3018H42.1106V22.7023H42.1876ZM42.9964 22.7023V22.219H42.8703L42.7233 22.5642L42.5762 22.219H42.4502V22.7023H42.5412V22.3364L42.6778 22.6505H42.7723L42.9088 22.3364V22.7023H42.9964Z" fill="#F79E1B"/>
<path d="M43.3915 14.9999C43.3915 17.3319 42.726 19.6169 41.4712 21.5936C40.2164 23.5704 38.4228 25.1591 36.2956 26.1782C34.1683 27.1973 31.7932 27.6056 29.4417 27.3566C27.0902 27.1075 24.8573 26.211 22.998 24.7697C24.4987 23.6068 25.7119 22.123 26.5461 20.4303C27.3803 18.7376 27.8138 16.8801 27.8138 14.9981C27.8138 13.1161 27.3803 11.2587 26.5461 9.56596C25.7119 7.87325 24.4987 6.38946 22.998 5.22655C24.8573 3.78521 27.0902 2.88877 29.4417 2.6397C31.7932 2.39063 34.1683 2.79898 36.2956 3.81807C38.4228 4.83716 40.2164 6.42588 41.4712 8.40261C42.726 10.3793 43.3915 12.6643 43.3915 14.9964V14.9999Z" fill="#F79E1B"/>
</svg>
