<svg width="16" height="16" viewBox="0 0 16 16" fill="none" xmlns="http://www.w3.org/2000/svg">
<path d="M14.6667 10.9167C13.625 10.9167 12.625 10.75 11.6917 10.4417C11.6083 10.4167 11.5167 10.4 11.4333 10.4C11.2167 10.4 11.0083 10.4833 10.8417 10.6417L9.00833 12.475C6.65 11.275 4.71667 9.35 3.51667 6.99167L5.35 5.15C5.58333 4.925 5.65 4.6 5.55833 4.30833C5.25 3.375 5.08333 2.375 5.08333 1.33333C5.08333 0.875 4.70833 0.5 4.25 0.5H1.33333C0.875 0.5 0.5 0.875 0.5 1.33333C0.5 9.15833 6.84167 15.5 14.6667 15.5C15.125 15.5 15.5 15.125 15.5 14.6667V11.75C15.5 11.2917 15.125 10.9167 14.6667 10.9167ZM2.19167 2.16667H3.44167C3.5 2.9 3.625 3.625 3.825 4.325L2.825 5.33333C2.48333 4.325 2.26667 3.26667 2.19167 2.16667ZM13.8333 13.8083C12.7333 13.7333 11.6667 13.5167 10.6667 13.175L11.6667 12.175C12.375 12.375 13.1 12.5 13.8333 12.55V13.8083ZM8 0.5V8.83333L10.5 6.33333H15.5V0.5H8ZM13.8333 4.66667H9.66667V2.16667H13.8333V4.66667Z" fill="#16395B"/>
</svg>
